<?xml version="1.0" encoding="iso-8859-1"?>
<!-- Generator: Adobe Illustrator 19.0.0, SVG Export Plug-In . SVG Version: 6.00 Build 0)  -->
<svg version="1.1" id="Layer_1" xmlns="http://www.w3.org/2000/svg" xmlns:xlink="http://www.w3.org/1999/xlink" x="0px" y="0px"
	 viewBox="0 0 511.986 511.986" style="enable-background:new 0 0 511.986 511.986;" xml:space="preserve">
<circle style="fill:#E79C25;" cx="156.534" cy="139.793" r="28.905"/>
<path style="fill:#E0711B;" d="M185.445,139.794c0,15.965-12.941,28.906-28.906,28.906c0-15.045,0-46.063,0-57.813
	C172.503,110.887,185.445,123.83,185.445,139.794z"/>
<rect x="382.424" y="141.792" transform="matrix(-0.298 -0.9546 0.9546 -0.298 276.013 711.3646)" style="fill:#444444;" width="34.316" height="224.794"/>
<path style="fill:#F0C838;" d="M156.539,158.425L156.539,158.425c-51.949,0-101.593,21.438-137.214,59.251l-14.32,15.202
	l14.6,168.222h273.866l14.601-168.222l-14.32-15.202C258.132,179.863,208.487,158.425,156.539,158.425z"/>
<g>
	<path style="fill:#E79C25;" d="M156.539,158.425L156.539,158.425c0,45.102,0,242.673,0,242.673h136.933l14.601-168.222
		l-14.32-15.202C258.132,179.863,208.487,158.425,156.539,158.425z"/>
	<rect y="215.721" style="fill:#E79C25;" width="313.08" height="34.315"/>
</g>
<rect x="156.534" y="215.721" style="fill:#E0711B;" width="156.534" height="34.315"/>
<g>
</g>
<g>
</g>
<g>
</g>
<g>
</g>
<g>
</g>
<g>
</g>
<g>
</g>
<g>
</g>
<g>
</g>
<g>
</g>
<g>
</g>
<g>
</g>
<g>
</g>
<g>
</g>
<g>
</g>
</svg>
