<?xml version="1.0" encoding="iso-8859-1"?>
<!-- Generator: Adobe Illustrator 19.0.0, SVG Export Plug-In . SVG Version: 6.00 Build 0)  -->
<svg version="1.1" id="Layer_1" xmlns="http://www.w3.org/2000/svg" xmlns:xlink="http://www.w3.org/1999/xlink" x="0px" y="0px"
	 viewBox="0 0 512 512" style="enable-background:new 0 0 512 512;" xml:space="preserve">
<path style="fill:#CC7400;" d="M489.739,512h-66.783c-9.223,0-16.696-7.473-16.696-16.696v-66.783
	c0-9.223,7.473-16.696,16.696-16.696h66.783c9.223,0,16.696,7.473,16.696,16.696v66.783C506.435,504.527,498.962,512,489.739,512z"
	/>
<path style="fill:#AA6100;" d="M489.739,411.826h-33.391V512h33.391c9.223,0,16.696-7.473,16.696-16.696v-66.783
	C506.435,419.299,498.962,411.826,489.739,411.826z"/>
<path style="fill:#CC7400;" d="M89.043,512H22.261c-9.223,0-16.696-7.473-16.696-16.696v-66.783c0-9.223,7.473-16.696,16.696-16.696
	h66.783c9.223,0,16.696,7.473,16.696,16.696v66.783C105.739,504.527,98.266,512,89.043,512z"/>
<path style="fill:#AA6100;" d="M89.043,411.826H55.652V512h33.391c9.223,0,16.696-7.473,16.696-16.696v-66.783
	C105.739,419.299,98.266,411.826,89.043,411.826z"/>
<path style="fill:#FFA630;" d="M489.739,445.217H22.261c-9.223,0-16.696-7.473-16.696-16.696V16.696C5.565,7.473,13.038,0,22.261,0
	h467.478c9.223,0,16.696,7.473,16.696,16.696v411.826C506.435,437.744,498.962,445.217,489.739,445.217z"/>
<path style="fill:#EE8700;" d="M489.739,0H256v445.217h233.739c9.223,0,16.696-7.473,16.696-16.696V16.696
	C506.435,7.473,498.962,0,489.739,0z"/>
<rect x="5.565" y="122.435" style="fill:#AA6100;" width="500.87" height="33.391"/>
<rect x="239.304" y="155.826" style="fill:#CC7400;" width="33.391" height="289.391"/>
<g>
	<circle style="fill:#884E00;" cx="189.217" cy="272.696" r="16.696"/>
	<circle style="fill:#884E00;" cx="322.783" cy="272.696" r="16.696"/>
</g>
<g>
</g>
<g>
</g>
<g>
</g>
<g>
</g>
<g>
</g>
<g>
</g>
<g>
</g>
<g>
</g>
<g>
</g>
<g>
</g>
<g>
</g>
<g>
</g>
<g>
</g>
<g>
</g>
<g>
</g>
</svg>
