<?xml version="1.0" encoding="iso-8859-1"?>
<!-- Generator: Adobe Illustrator 19.0.0, SVG Export Plug-In . SVG Version: 6.00 Build 0)  -->
<svg version="1.1" id="Layer_1" xmlns="http://www.w3.org/2000/svg" xmlns:xlink="http://www.w3.org/1999/xlink" x="0px" y="0px"
	 viewBox="0 0 512 512" style="enable-background:new 0 0 512 512;" xml:space="preserve">
<path style="fill:#F7B239;" d="M313.722,277.487l-23.479-22.335l191.155-200.45c8.027,0.932,16.397-1.68,22.555-7.838
	c10.728-10.713,10.728-28.095,0-38.823c-10.713-10.713-28.095-10.713-38.809,0c-6.15,6.163-8.763,14.518-7.842,22.545
	L256.007,222.557L54.703,30.714c0.953-8.072-1.662-16.473-7.848-22.674C36.141-2.673,18.759-2.673,8.046,8.04
	c-10.728,10.728-10.728,28.11,0,38.823c6.188,6.188,14.596,8.796,22.667,7.826l191.044,200.462L9.966,456.683
	C3.327,463,0,471.456,0,479.927c0,8.193,3.122,16.4,9.394,22.673c12.751,12.751,33.488,12.487,45.917-0.572l200.696-210.897
	l22.365,23.508l178.317,187.389c12.428,13.058,33.166,13.322,45.917,0.572c6.273-6.258,9.394-14.465,9.394-22.673
	c0-8.471-3.327-16.927-9.966-23.244L313.722,277.487z"/>
<g>
	<path style="opacity:0.25;fill:#4D4D4D;enable-background:new    ;" d="M46.856,8.04C38.639-0.177,26.505-2.066,16.46,2.322
		c3.051,1.332,5.917,3.223,8.412,5.719c10.728,10.728,10.728,28.11,0,38.823c-2.494,2.494-5.354,4.406-8.405,5.739
		c1.798,0.784,3.662,1.37,5.562,1.75c8.691,1.759,18.085-0.747,24.827-7.489C57.584,36.15,57.584,18.768,46.856,8.04z"/>
	<polygon style="opacity:0.25;fill:#4D4D4D;enable-background:new    ;" points="313.722,277.487 313.165,278.073 278.929,314.053 
		278.372,314.639 256.007,291.131 290.243,255.151 	"/>
	<path style="opacity:0.25;fill:#4D4D4D;enable-background:new    ;" d="M503.954,8.04c-8.217-8.218-20.351-10.107-30.396-5.719
		c3.051,1.332,5.917,3.223,8.412,5.719c10.728,10.728,10.728,28.11,0,38.823c-2.494,2.494-5.354,4.406-8.405,5.739
		c1.798,0.784,3.662,1.37,5.562,1.75c8.691,1.759,18.085-0.747,24.827-7.489C514.682,36.15,514.682,18.768,503.954,8.04z"/>
</g>
<g>
</g>
<g>
</g>
<g>
</g>
<g>
</g>
<g>
</g>
<g>
</g>
<g>
</g>
<g>
</g>
<g>
</g>
<g>
</g>
<g>
</g>
<g>
</g>
<g>
</g>
<g>
</g>
<g>
</g>
</svg>
