<?xml version="1.0" encoding="iso-8859-1"?>
<!-- Generator: Adobe Illustrator 19.0.0, SVG Export Plug-In . SVG Version: 6.00 Build 0)  -->
<svg version="1.1" id="Layer_1" xmlns="http://www.w3.org/2000/svg" xmlns:xlink="http://www.w3.org/1999/xlink" x="0px" y="0px"
	 viewBox="0 0 512 512" style="enable-background:new 0 0 512 512;" xml:space="preserve">
<g>
	<path style="fill:#F0C838;" d="M59.171,512c-15.159,0-30.319-5.771-41.859-17.312c-23.081-23.081-23.081-60.639,0-83.72
		l47.882-47.882l83.721,83.721l-47.882,47.882C89.49,506.229,74.331,512,59.171,512z"/>
	<path style="fill:#F0C838;" d="M446.807,148.913l-83.721-83.721l47.882-47.882c23.081-23.08,60.639-23.081,83.72,0
		c23.081,23.081,23.081,60.639,0,83.72L446.807,148.913z"/>
</g>
<g>
	<path style="fill:#E79C25;" d="M59.171,512c15.16,0,30.319-5.771,41.861-17.312l47.882-47.882l-41.861-41.861L17.31,494.688
		C28.851,506.229,44.012,512,59.171,512z"/>
	<path style="fill:#E79C25;" d="M404.946,107.053l41.861,41.861l47.882-47.882c23.081-23.081,23.081-60.639,0-83.72L404.946,107.053
		z"/>
	<path style="fill:#E79C25;" d="M155.879,501.001L10.997,356.119L356.12,10.998L501.001,155.88L155.879,501.001z"/>
</g>
<path style="fill:#E0711B;" d="M155.879,501.001l-72.44-72.44L428.56,83.438l72.44,72.44L155.879,501.001z"/>
<g>
</g>
<g>
</g>
<g>
</g>
<g>
</g>
<g>
</g>
<g>
</g>
<g>
</g>
<g>
</g>
<g>
</g>
<g>
</g>
<g>
</g>
<g>
</g>
<g>
</g>
<g>
</g>
<g>
</g>
</svg>
