<?xml version="1.0" encoding="iso-8859-1"?>
<!-- Generator: Adobe Illustrator 19.0.0, SVG Export Plug-In . SVG Version: 6.00 Build 0)  -->
<svg version="1.1" id="Layer_1" xmlns="http://www.w3.org/2000/svg" xmlns:xlink="http://www.w3.org/1999/xlink" x="0px" y="0px"
	 viewBox="0 0 512 512" style="enable-background:new 0 0 512 512;" xml:space="preserve">
<path style="fill:#444444;" d="M511.97,133.384c0.427-10.933-3.764-21.642-11.502-29.38l-92.472-92.472
	C400.258,3.794,389.562-0.4,378.616,0.03c-10.933,0.427-21.283,5.445-28.392,13.764l-94.181,110.215
	c-13.262,15.519-12.343,38.983,2.091,53.417l26.571,26.571L163.851,324.851l23.296,23.296l120.854-120.854l26.571,26.571
	c7.609,7.61,17.729,11.463,27.869,11.463c9.096,0,18.211-3.101,25.548-9.371l110.216-94.182
	C506.525,154.666,511.543,144.317,511.97,133.384z M313.268,185.967L421.644,71.772l18.584,18.584L326.033,198.732L313.268,185.967z
	 M281.091,145.414l94.181-110.215c1.588-1.859,3.585-2.206,4.635-2.247c0.077-0.003,0.16-0.004,0.247-0.004
	c1.097,0,2.946,0.28,4.548,1.882l13.639,13.639L289.966,162.664l-8.531-8.531C279.077,151.775,278.927,147.946,281.091,145.414z
	 M476.802,136.727L366.587,230.91c-2.532,2.164-6.361,2.015-8.717-0.342l-8.531-8.531l114.195-108.376l13.639,13.639
	c1.729,1.729,1.918,3.747,1.877,4.795C479.007,133.143,478.661,135.139,476.802,136.727z"/>
<path style="fill:#232323;" d="M511.97,133.384c0.427-10.933-3.764-21.642-11.502-29.38l-46.236-46.236l-23.296,23.296l9.292,9.292
	L326.033,198.732l-6.382-6.382L175.5,336.501l11.648,11.648l120.854-120.854l26.571,26.571c7.609,7.61,17.727,11.463,27.869,11.463
	c9.096,0,18.211-3.101,25.548-9.371l110.216-94.182C506.525,154.666,511.543,144.317,511.97,133.384z M476.802,136.727
	L366.587,230.91c-2.532,2.164-6.361,2.015-8.717-0.342l-8.531-8.531l114.195-108.376l13.639,13.639
	c1.729,1.729,1.918,3.747,1.877,4.795C479.007,133.143,478.661,135.139,476.802,136.727z"/>
<path style="fill:#53B8DA;" d="M77.733,512L0,434.268l148.282-148.282l77.732,77.732L77.733,512z"/>
<path style="fill:#17778D;" d="M77.733,512l-38.876-38.876l148.281-148.282l38.876,38.876L77.733,512z"/>
<g>
</g>
<g>
</g>
<g>
</g>
<g>
</g>
<g>
</g>
<g>
</g>
<g>
</g>
<g>
</g>
<g>
</g>
<g>
</g>
<g>
</g>
<g>
</g>
<g>
</g>
<g>
</g>
<g>
</g>
</svg>
