<?xml version="1.0" encoding="iso-8859-1"?>
<!-- Generator: Adobe Illustrator 19.0.0, SVG Export Plug-In . SVG Version: 6.00 Build 0)  -->
<svg version="1.1" id="Layer_1" xmlns="http://www.w3.org/2000/svg" xmlns:xlink="http://www.w3.org/1999/xlink" x="0px" y="0px"
	 viewBox="0 0 512 512" style="enable-background:new 0 0 512 512;" xml:space="preserve">
<path style="fill:#3E3D42;" d="M306.087,512H205.913c-9.223,0-16.696-7.473-16.696-16.696V395.13
	c0-9.223,7.473-16.696,16.696-16.696h100.174c9.223,0,16.696,7.473,16.696,16.696v100.174C322.783,504.527,315.31,512,306.087,512z"
	/>
<path style="fill:#2D2D30;" d="M306.087,378.435H256V512h50.087c9.223,0,16.696-7.473,16.696-16.696V395.13
	C322.783,385.908,315.31,378.435,306.087,378.435z"/>
<g>
	<path style="fill:#4D4D4D;" d="M372.87,512H139.13c-9.223,0-16.696-7.473-16.696-16.696s7.473-16.696,16.696-16.696H372.87
		c9.223,0,16.696,7.473,16.696,16.696S382.092,512,372.87,512z"/>
	<path style="fill:#4D4D4D;" d="M495.304,411.826H16.696C7.473,411.826,0,404.353,0,395.13V16.696C0,7.473,7.473,0,16.696,0h478.609
		C504.527,0,512,7.473,512,16.696V395.13C512,404.353,504.527,411.826,495.304,411.826z"/>
</g>
<path style="fill:#3E3D42;" d="M512,395.13V16.696C512,7.473,504.527,0,495.304,0H256v411.826h239.304
	C504.527,411.826,512,404.353,512,395.13z"/>
<rect x="33.391" y="33.391" style="fill:#78B9EB;" width="445.217" height="311.652"/>
<rect x="256" y="33.391" style="fill:#5AAAE7;" width="222.609" height="311.652"/>
<g>
</g>
<g>
</g>
<g>
</g>
<g>
</g>
<g>
</g>
<g>
</g>
<g>
</g>
<g>
</g>
<g>
</g>
<g>
</g>
<g>
</g>
<g>
</g>
<g>
</g>
<g>
</g>
<g>
</g>
</svg>
