<?xml version="1.0" encoding="iso-8859-1"?>
<!-- Generator: Adobe Illustrator 19.0.0, SVG Export Plug-In . SVG Version: 6.00 Build 0)  -->
<svg version="1.1" id="Layer_1" xmlns="http://www.w3.org/2000/svg" xmlns:xlink="http://www.w3.org/1999/xlink" x="0px" y="0px"
	 viewBox="0 0 512 512" style="enable-background:new 0 0 512 512;" xml:space="preserve">
<path style="fill:#FF877F;" d="M102.382,499.174c-31.095,0-51.183-20.096-51.183-51.2V140.826l307.166,0.034v307.149
	c0,31.095-20.096,51.191-51.2,51.191L102.382,499.174z"/>
<g>
	<rect x="166.382" style="fill:#573A32;" width="25.6" height="102.4"/>
	<rect x="115.191" y="25.6" style="fill:#573A32;" width="25.6" height="76.8"/>
	<rect x="268.774" y="64" style="fill:#573A32;" width="25.6" height="38.4"/>
	<rect x="217.574" y="38.4" style="fill:#573A32;" width="25.6" height="64"/>
	<path style="fill:#573A32;" d="M472.046,287.744C464.127,235.657,423.005,192,371.14,181.982v-41.114c0-7.066-5.717-12.8-12.8-12.8
		l-307.14-0.026c-7.066,0-12.8,5.717-12.8,12.783v307.149c0,38.4,25.6,63.991,63.983,63.991L307.165,512
		c38.391,0,63.983-25.6,63.983-63.983v-15.531c47.727-9.754,86.195-45.926,98.347-93.269c2.449-9.515,3.123-15.607,3.866-25.395
		C473.992,305.263,473.318,296.141,472.046,287.744z M345.565,448.017c0,24.252-14.14,38.383-38.391,38.383l-204.791-0.026
		c-24.252,0-38.383-14.14-38.383-38.4V153.626l281.566,0.043L345.565,448.017L345.565,448.017z M427.588,368.486
		c-11.836,15.846-28.262,28.126-46.831,34.918c-3.149,1.152-6.409,1.997-9.609,2.978V208.068l9.609,2.978
		c3.055,1.306,6.178,2.441,9.173,3.891c5.939,2.85,11.597,6.298,16.87,10.24c18.56,13.875,32.137,33.997,37.897,56.465
		C452.351,311.45,446.028,343.825,427.588,368.486z"/>
</g>
<g>
</g>
<g>
</g>
<g>
</g>
<g>
</g>
<g>
</g>
<g>
</g>
<g>
</g>
<g>
</g>
<g>
</g>
<g>
</g>
<g>
</g>
<g>
</g>
<g>
</g>
<g>
</g>
<g>
</g>
</svg>
