<?xml version="1.0" encoding="iso-8859-1"?>
<!-- Generator: Adobe Illustrator 19.0.0, SVG Export Plug-In . SVG Version: 6.00 Build 0)  -->
<svg version="1.1" id="Layer_1" xmlns="http://www.w3.org/2000/svg" xmlns:xlink="http://www.w3.org/1999/xlink" x="0px" y="0px"
	 viewBox="0 0 512.238 512.238" style="enable-background:new 0 0 512.238 512.238;" xml:space="preserve">
<g transform="translate(-1)">
	<path style="fill:#E58D51;" d="M419.696,31.712C383.644,4.823,337.273-5.4,293.647,5.555
		c-19.668,4.935-36.529,13.594-36.529,28.769c0-15.175-16.852-23.834-36.52-28.769C176.973-5.4,130.602,4.823,94.55,31.712
		C49.485,65.309-1.794,130.943,1.119,255.014c3.584,152.232,95.85,199.459,151.896,214.104
		c35.672,9.322,70.215,22.528,102.223,40.819l1.88,1.077l1.889-1.077c32.009-18.291,66.551-31.497,102.223-40.819
		c56.046-14.645,148.312-61.873,151.887-214.104C516.041,130.943,464.761,65.309,419.696,31.712"/>
	<path style="fill:#FBD490;" d="M257.123,360.942c-82.714-58.553-82.714-153.309,0-211.862
		C339.838,207.633,339.838,302.388,257.123,360.942"/>
	<g>
		<path style="fill:#E58D51;" d="M283.606,219.7c0,4.873-3.955,8.828-8.828,8.828s-8.828-3.955-8.828-8.828
			c0-4.873,3.955-8.828,8.828-8.828S283.606,214.828,283.606,219.7"/>
		<path style="fill:#E58D51;" d="M257.123,202.045c0,4.873-3.955,8.828-8.828,8.828s-8.828-3.955-8.828-8.828
			c0-4.873,3.955-8.828,8.828-8.828S257.123,197.172,257.123,202.045"/>
		<path style="fill:#E58D51;" d="M283.606,263.838c0,4.873-3.955,8.828-8.828,8.828s-8.828-3.955-8.828-8.828
			s3.955-8.828,8.828-8.828S283.606,258.965,283.606,263.838"/>
		<path style="fill:#E58D51;" d="M239.468,246.183c0,4.873-3.955,8.828-8.828,8.828c-4.873,0-8.828-3.955-8.828-8.828
			s3.955-8.828,8.828-8.828C235.513,237.356,239.468,241.31,239.468,246.183"/>
		<path style="fill:#E58D51;" d="M248.295,290.321c0,4.873-3.955,8.828-8.828,8.828c-4.873,0-8.828-3.955-8.828-8.828
			s3.955-8.828,8.828-8.828C244.341,281.493,248.295,285.448,248.295,290.321"/>
	</g>
</g>
<g>
</g>
<g>
</g>
<g>
</g>
<g>
</g>
<g>
</g>
<g>
</g>
<g>
</g>
<g>
</g>
<g>
</g>
<g>
</g>
<g>
</g>
<g>
</g>
<g>
</g>
<g>
</g>
<g>
</g>
</svg>
