<?xml version="1.0" encoding="iso-8859-1"?>
<!-- Generator: Adobe Illustrator 19.0.0, SVG Export Plug-In . SVG Version: 6.00 Build 0)  -->
<svg version="1.1" id="Capa_1" xmlns="http://www.w3.org/2000/svg" xmlns:xlink="http://www.w3.org/1999/xlink" x="0px" y="0px"
	 viewBox="0 0 280 280" style="enable-background:new 0 0 280 280;" xml:space="preserve">
<g id="XMLID_2419_">
	<path id="XMLID_2420_" style="fill:#78B9EB;" d="M46.666,5C20.893,5,0,25.893,0,51.666v176.667C0,254.107,20.893,275,46.666,275
		c25.773,0,46.668-20.893,46.668-46.667V145c0-25.773,20.893-46.667,46.666-46.667V5H46.666z"/>
	<path id="XMLID_2421_" style="fill:#5A8BB0;" d="M233.334,5H140v93.333c25.773,0,46.666,20.894,46.666,46.667v83.333
		c0,25.774,20.895,46.667,46.668,46.667C259.107,275,280,254.107,280,228.333V51.666C280,25.893,259.107,5,233.334,5z"/>
</g>
<g>
</g>
<g>
</g>
<g>
</g>
<g>
</g>
<g>
</g>
<g>
</g>
<g>
</g>
<g>
</g>
<g>
</g>
<g>
</g>
<g>
</g>
<g>
</g>
<g>
</g>
<g>
</g>
<g>
</g>
</svg>
