<?xml version="1.0" encoding="iso-8859-1"?>
<!-- Generator: Adobe Illustrator 19.0.0, SVG Export Plug-In . SVG Version: 6.00 Build 0)  -->
<svg version="1.1" id="Layer_1" xmlns="http://www.w3.org/2000/svg" xmlns:xlink="http://www.w3.org/1999/xlink" x="0px" y="0px"
	 viewBox="0 0 512 512" style="enable-background:new 0 0 512 512;" xml:space="preserve">
<path style="fill:#3A88D6;" d="M442.594,132.381h-93.297H256h-93.297H69.406H5.737V68.536c0-14.184,11.486-25.669,25.657-25.669
	h28.456c8.308,0,16.365-1.992,23.564-5.673c7.199-3.669,13.528-9.027,18.395-15.76C111.541,7.968,127.149,0,143.766,0h224.468
	c16.604,0,32.213,7.968,41.946,21.433c9.746,13.465,25.342,21.433,41.959,21.433h28.456c14.171,0,25.669,11.486,25.669,25.669
	v63.846H442.594z"/>
<g>
	<path style="fill:#4D4D4D;" d="M69.402,207.17c-3.482,0-6.304-2.823-6.304-6.304V90.776c0-3.481,2.822-6.304,6.304-6.304
		s6.304,2.823,6.304,6.304v110.091C75.706,204.347,72.884,207.17,69.402,207.17z"/>
	<path style="fill:#4D4D4D;" d="M162.699,207.17c-3.482,0-6.304-2.823-6.304-6.304V90.776c0-3.481,2.822-6.304,6.304-6.304
		s6.304,2.823,6.304,6.304v110.091C169.003,204.347,166.181,207.17,162.699,207.17z"/>
	<path style="fill:#4D4D4D;" d="M255.996,207.17c-3.482,0-6.304-2.823-6.304-6.304V90.776c0-3.481,2.822-6.304,6.304-6.304
		s6.304,2.823,6.304,6.304v110.091C262.3,204.347,259.478,207.17,255.996,207.17z"/>
	<path style="fill:#4D4D4D;" d="M349.293,207.17c-3.482,0-6.304-2.823-6.304-6.304V90.776c0-3.481,2.822-6.304,6.304-6.304
		c3.482,0,6.304,2.823,6.304,6.304v110.091C355.597,204.347,352.776,207.17,349.293,207.17z"/>
	<path style="fill:#4D4D4D;" d="M442.591,207.17c-3.482,0-6.304-2.823-6.304-6.304V90.776c0-3.481,2.822-6.304,6.304-6.304
		c3.482,0,6.304,2.823,6.304,6.304v110.091C448.895,204.347,446.073,207.17,442.591,207.17z"/>
</g>
<g>
	<polygon style="fill:#F7B239;" points="92.73,181.551 92.73,336.626 46.081,336.626 46.081,181.551 69.406,181.551 	"/>
	<polygon style="fill:#F7B239;" points="186.027,181.551 186.027,383.779 139.378,383.779 139.378,181.551 162.703,181.551 	"/>
	<polygon style="fill:#F7B239;" points="279.324,181.551 279.324,435.849 232.676,435.849 232.676,181.551 256,181.551 	"/>
	<polygon style="fill:#F7B239;" points="372.622,181.551 372.622,477.921 325.973,477.921 325.973,181.551 349.297,181.551 	"/>
	<polygon style="fill:#F7B239;" points="465.919,181.551 465.919,512 419.27,512 419.27,181.551 442.594,181.551 	"/>
</g>
<g style="opacity:0.25;">
	<rect x="72.558" y="181.551" style="fill:#4D4D4D;" width="20.172" height="155.075"/>
	<rect x="165.855" y="181.551" style="fill:#4D4D4D;" width="20.172" height="202.228"/>
	<rect x="259.152" y="181.551" style="fill:#4D4D4D;" width="20.172" height="254.298"/>
	<rect x="352.449" y="181.551" style="fill:#4D4D4D;" width="20.172" height="296.37"/>
	<rect x="445.746" y="181.551" style="fill:#4D4D4D;" width="20.172" height="330.449"/>
</g>
<g>
</g>
<g>
</g>
<g>
</g>
<g>
</g>
<g>
</g>
<g>
</g>
<g>
</g>
<g>
</g>
<g>
</g>
<g>
</g>
<g>
</g>
<g>
</g>
<g>
</g>
<g>
</g>
<g>
</g>
</svg>
