<?xml version="1.0" encoding="iso-8859-1"?>
<!-- Generator: Adobe Illustrator 19.0.0, SVG Export Plug-In . SVG Version: 6.00 Build 0)  -->
<svg version="1.1" id="Layer_1" xmlns="http://www.w3.org/2000/svg" xmlns:xlink="http://www.w3.org/1999/xlink" x="0px" y="0px"
	 viewBox="0 0 512 512" style="enable-background:new 0 0 512 512;" xml:space="preserve">
<g>
	<path style="fill:#2D2D30;" d="M222.609,100.174H122.435c-27.619,0-50.087-22.468-50.087-50.087V16.696
		C72.348,7.473,79.821,0,89.043,0s16.696,7.473,16.696,16.696v33.391c0,9.206,7.49,16.696,16.696,16.696h100.174
		c9.223,0,16.696,7.473,16.696,16.696S231.831,100.174,222.609,100.174z"/>
	<path style="fill:#2D2D30;" d="M222.609,267.13H122.435c-27.619,0-50.087-22.468-50.087-50.087v-33.391
		c0-9.223,7.473-16.696,16.696-16.696s16.696,7.473,16.696,16.696v33.391c0,9.206,7.49,16.696,16.696,16.696h100.174
		c9.223,0,16.696,7.473,16.696,16.696S231.831,267.13,222.609,267.13z"/>
	<path style="fill:#2D2D30;" d="M389.565,166.957H289.391c-9.223,0-16.696-7.473-16.696-16.696s7.473-16.696,16.696-16.696h100.174
		c9.206,0,16.696-7.49,16.696-16.696V83.478c0-9.223,7.473-16.696,16.696-16.696s16.696,7.473,16.696,16.696v33.391
		C439.652,144.489,417.184,166.957,389.565,166.957z"/>
	<path style="fill:#2D2D30;" d="M389.565,333.913H289.391c-9.223,0-16.696-7.473-16.696-16.696s7.473-16.696,16.696-16.696h100.174
		c9.206,0,16.696-7.49,16.696-16.696v-33.391c0-9.223,7.473-16.696,16.696-16.696s16.696,7.473,16.696,16.696v33.391
		C439.652,311.445,417.184,333.913,389.565,333.913z"/>
</g>
<g>
	<path style="fill:#4D4D4D;" d="M289.391,445.217h-66.783c-9.223,0-16.696-7.473-16.696-16.696V50.087
		C205.913,22.468,228.381,0,256,0s50.087,22.468,50.087,50.087v378.435C306.087,437.744,298.614,445.217,289.391,445.217z"/>
	<path style="fill:#4D4D4D;" d="M356.174,512H155.826c-9.223,0-16.696-7.473-16.696-16.696v-33.391
		c0-27.619,22.468-50.087,50.087-50.087h133.565c27.619,0,50.087,22.468,50.087,50.087v33.391
		C372.87,504.527,365.397,512,356.174,512z"/>
</g>
<g>
	<path style="fill:#3E3D42;" d="M289.391,445.217c9.223,0,16.696-7.473,16.696-16.696V50.087C306.087,22.468,283.619,0,256,0
		v445.217H289.391z"/>
	<path style="fill:#3E3D42;" d="M322.783,411.826H256V512h100.174c9.223,0,16.696-7.473,16.696-16.696v-33.391
		C372.87,434.294,350.402,411.826,322.783,411.826z"/>
</g>
<g>
</g>
<g>
</g>
<g>
</g>
<g>
</g>
<g>
</g>
<g>
</g>
<g>
</g>
<g>
</g>
<g>
</g>
<g>
</g>
<g>
</g>
<g>
</g>
<g>
</g>
<g>
</g>
<g>
</g>
</svg>
