<?xml version="1.0" encoding="iso-8859-1"?>
<!-- Generator: Adobe Illustrator 19.0.0, SVG Export Plug-In . SVG Version: 6.00 Build 0)  -->
<svg version="1.1" id="Layer_1" xmlns="http://www.w3.org/2000/svg" xmlns:xlink="http://www.w3.org/1999/xlink" x="0px" y="0px"
	 viewBox="0 0 512 512" style="enable-background:new 0 0 512 512;" xml:space="preserve">
<path style="fill:#F7B239;" d="M392.5,173.18c-9.265,0-16.77,7.517-16.77,16.77c0,9.265,7.505,16.77,16.77,16.77
	c9.253,0,16.77-7.505,16.77-16.77C409.27,180.697,401.753,173.18,392.5,173.18z M434.02,68.815
	c19.791,47.324,31.732,108.706,31.732,175.797c0,59.479-24.358,180.97-36.394,237.381l-79.698,14.569l-64.926-14.891
	c12.666-59.241,30.4-367.293,15.592-412.856l59.443-16.77L434.02,68.815z"/>
<g style="opacity:0.25;">
	<path style="fill:#4D4D4D;" d="M434.02,68.815h-46.382c19.791,47.324,31.732,108.706,31.732,175.797
		c0,59.368-24.266,180.512-36.325,237.06h44.863l1.451,0.321c12.036-56.41,36.394-177.902,36.394-237.381
		C465.752,177.521,453.811,116.139,434.02,68.815z"/>
</g>
<path style="fill:#3A88D6;" d="M427.907,481.672l1.451,0.321c-3.961,18.506-6.577,30.007-6.577,30.007H278.085v-0.012
	c0,0,2.64-11.572,6.648-30.316H427.907z"/>
<g>
	
		<rect x="330.479" y="115.934" transform="matrix(-0.0889 -0.996 0.996 -0.0889 300.9984 519.0906)" style="fill:#4D4D4D;" width="114.862" height="11.893"/>
	<path style="opacity:0.25;fill:#4D4D4D;enable-background:new    ;" d="M429.358,481.672c-4.008,18.744-6.648,30.316-6.648,30.316
		h-46.314c0,0,2.64-11.572,6.648-30.316H429.358z"/>
</g>
<path style="fill:#3A88D6;" d="M427.776,41.092l6.244,27.712H300.326c-3.152-9.729-6.589-19.053-10.3-27.902V40.89l-2.379-10.561
	h126.677C420.771,30.328,426.361,34.8,427.776,41.092z"/>
<path style="opacity:0.25;fill:#4D4D4D;enable-background:new    ;" d="M427.776,41.092c-1.415-6.292-7.005-10.764-13.451-10.764
	h-46.382c6.446,0,12.036,4.472,13.451,10.764l6.244,27.712h46.382L427.776,41.092z"/>
<path style="fill:#CC582F;" d="M392.5,173.18c9.253,0,16.77,7.517,16.77,16.77c0,9.265-7.517,16.77-16.77,16.77
	c-9.265,0-16.77-7.505-16.77-16.77C375.73,180.697,383.235,173.18,392.5,173.18z"/>
<path style="fill:#F7B239;" d="M250.647,151.855c-9.848,0-17.828,7.98-17.828,17.816c0,9.848,7.98,17.828,17.828,17.828
	c9.848,0,17.828-7.98,17.828-17.828C268.476,159.836,260.495,151.855,250.647,151.855z M124.113,151.855
	c-9.848,0-17.828,7.98-17.828,17.816c0,9.848,7.98,17.828,17.828,17.828c9.836,0,17.816-7.98,17.816-17.828
	C141.93,159.836,133.949,151.855,124.113,151.855z M305.084,68.815c14.807,45.564,23.43,100.202,23.43,158.956
	c0,63.784-26.356,194.66-39.022,253.901l-104.852,19.053l-99.31-18.78c-12.643-59.11-39.082-190.295-39.082-254.174
	c0-71.313,12.69-136.56,33.718-186.869l114.189-26.023l100.63,26.023c3.711,8.849,7.148,18.173,10.3,27.902V68.815z"/>
<g style="opacity:0.25;">
	<path style="fill:#4D4D4D;" d="M305.084,68.815v-0.012c-3.152-9.729-6.589-19.053-10.3-27.902h-51.808h-21.333
		c3.711,8.849,7.148,18.173,10.3,27.902v0.012c8.185,25.187,14.47,53.156,18.463,83.052c0.081-0.001,0.161-0.012,0.241-0.012
		c9.848,0,11.577,33.77,3.316,35.325c0.917,13.265,1.409,26.809,1.409,40.591c0,63.784-26.356,194.66-39.022,253.901h73.141
		c12.666-59.241,39.022-190.116,39.022-253.901C328.514,169.017,319.891,114.379,305.084,68.815z"/>
	<path style="fill:#4D4D4D;" d="M85.329,481.945l1.261-0.274H85.27C85.289,481.761,85.31,481.856,85.329,481.945z"/>
</g>
<path style="fill:#3A88D6;" d="M86.589,481.672h202.902c-4.008,18.744-6.648,30.316-6.648,30.316H91.918
	c0,0-2.617-11.453-6.589-30.043L86.589,481.672z"/>
<g>
	<path style="opacity:0.25;fill:#4D4D4D;enable-background:new    ;" d="M289.491,481.672c-4.008,18.744-6.648,30.316-6.648,30.316
		h-73.141c0,0,2.64-11.572,6.648-30.316H289.491z"/>
	
		<rect x="123.021" y="36.669" transform="matrix(-0.996 -0.0889 0.0889 -0.996 248.7713 205.7612)" style="fill:#4D4D4D;" width="11.893" height="121.344"/>
	
		<rect x="185.108" y="91.395" transform="matrix(-0.0889 -0.996 0.996 -0.0889 170.6743 350.8013)" style="fill:#4D4D4D;" width="121.344" height="11.893"/>
</g>
<path style="fill:#3A88D6;" d="M292.405,30.328l2.379,10.561h-51.808H79.965l6.637-29.448C88.112,4.745,94.059,0,100.909,0h172.93
	c6.863,0,12.809,4.745,14.308,11.441L292.405,30.328z"/>
<path style="opacity:0.25;fill:#4D4D4D;enable-background:new    ;" d="M294.784,40.89h-73.141l-2.379-10.561l-4.258-18.887
	C213.508,4.745,207.561,0,200.699,0h73.141c6.863,0,12.809,4.745,14.308,11.441l4.258,18.887L294.784,40.89z"/>
<g>
	<path style="fill:#CC582F;" d="M124.113,151.855c9.836,0,17.816,7.98,17.816,17.816c0,9.848-7.98,17.828-17.816,17.828
		c-9.848,0-17.828-7.98-17.828-17.828C106.285,159.836,114.265,151.855,124.113,151.855z"/>
	<path style="fill:#CC582F;" d="M250.647,151.855c9.848,0,17.828,7.98,17.828,17.816c0,9.848-7.98,17.828-17.828,17.828
		c-9.848,0-17.828-7.98-17.828-17.828C232.819,159.836,240.8,151.855,250.647,151.855z"/>
</g>
<g>
</g>
<g>
</g>
<g>
</g>
<g>
</g>
<g>
</g>
<g>
</g>
<g>
</g>
<g>
</g>
<g>
</g>
<g>
</g>
<g>
</g>
<g>
</g>
<g>
</g>
<g>
</g>
<g>
</g>
</svg>
