<?xml version="1.0" encoding="iso-8859-1"?>
<!-- Generator: Adobe Illustrator 19.0.0, SVG Export Plug-In . SVG Version: 6.00 Build 0)  -->
<svg version="1.1" id="Layer_1" xmlns="http://www.w3.org/2000/svg" xmlns:xlink="http://www.w3.org/1999/xlink" x="0px" y="0px"
	 viewBox="0 0 512 512" style="enable-background:new 0 0 512 512;" xml:space="preserve">
<g>
	<path style="fill:#D18B5C;" d="M256,301.402L256,301.402c10.573,0,19.22,8.65,19.22,19.218v172.163
		c0,10.57-8.647,19.218-19.22,19.218l0,0c-10.573,0-19.22-8.647-19.22-19.218V320.62C236.78,310.049,245.427,301.402,256,301.402z"
		/>
	<path style="fill:#FFC273;" d="M256,0L256,0c47.875,0,87.047,39.17,87.047,87.044v284.504c0,21.125-17.284,38.407-38.409,38.407
		H207.36c-21.122,0-38.407-17.282-38.407-38.407V87.044C168.956,39.17,208.123,0,256,0z"/>
	<g>
		<path style="fill:#FFD8A6;" d="M221.916,67.121L221.916,67.121c8.782,0,15.964,7.185,15.964,15.966v276.717
			c0,8.781-7.182,15.966-15.964,15.966l0,0c-8.781,0-15.964-7.185-15.964-15.966V83.088
			C205.95,74.306,213.134,67.121,221.916,67.121z"/>
		<path style="fill:#FFD8A6;" d="M290.082,67.121L290.082,67.121c8.781,0,15.964,7.185,15.964,15.966v276.717
			c0,8.781-7.182,15.966-15.964,15.966l0,0c-8.781,0-15.964-7.185-15.964-15.966V83.088C274.115,74.306,281.3,67.121,290.082,67.121
			z"/>
		<path style="fill:#FFD8A6;" d="M183.009,58.137c3.773-13.948,20.628-32.379,36.736-39.911c14.945-6.987,18.365,5.304,8.013,10.092
			c-13.433,6.211-27.628,21.146-33.079,34.421C190.528,72.849,180.076,68.995,183.009,58.137z"/>
	</g>
</g>
<g>
</g>
<g>
</g>
<g>
</g>
<g>
</g>
<g>
</g>
<g>
</g>
<g>
</g>
<g>
</g>
<g>
</g>
<g>
</g>
<g>
</g>
<g>
</g>
<g>
</g>
<g>
</g>
<g>
</g>
</svg>
