<?xml version="1.0" encoding="iso-8859-1"?>
<!-- Generator: Adobe Illustrator 19.0.0, SVG Export Plug-In . SVG Version: 6.00 Build 0)  -->
<svg version="1.1" id="Layer_1" xmlns="http://www.w3.org/2000/svg" xmlns:xlink="http://www.w3.org/1999/xlink" x="0px" y="0px"
	 viewBox="0 0 512 512" style="enable-background:new 0 0 512 512;" xml:space="preserve">
<path style="fill:#F7B239;" d="M353.671,22.027v189.251c0,46.281-32.354,85.123-75.638,95.137v147.978
	c-6.403-3.936-13.95-6.199-22.027-6.199c-8.077,0-15.623,2.263-22.027,6.199V306.415c-43.271-10.014-75.65-48.856-75.65-95.137
	V22.027c0-6.091,2.467-11.591,6.452-15.575C168.765,2.467,174.278,0,180.356,0c12.169,0,22.027,9.858,22.027,22.027v189.251
	c0,29.249,23.556,53.117,52.696,53.611c29.995,0.518,54.538-24.555,54.538-54.55V22.027c0-6.091,2.467-11.591,6.452-15.575
	S325.553,0,331.644,0C343.813,0,353.671,9.858,353.671,22.027z"/>
<g style="opacity:0.25;">
	<path style="fill:#4D4D4D;" d="M186.335,22.027v189.251c0,29.249,23.556,53.117,52.696,53.611c3.026,0.052,5.992-0.168,8.887-0.615
		c-25.74-3.912-45.534-26.187-45.534-52.996V22.027C202.383,9.858,192.525,0,180.356,0c-2.832,0-5.532,0.555-8.021,1.53
		C180.527,4.74,186.335,12.694,186.335,22.027z"/>
	<path style="fill:#4D4D4D;" d="M331.644,0c-2.837,0-5.537,0.555-8.024,1.529c8.193,3.209,14.002,11.164,14.002,20.498v189.251
		c0,46.281-32.354,85.123-75.638,95.137v142.199c5.818,0.823,11.254,2.832,16.048,5.779V306.415
		c43.284-10.014,75.638-48.856,75.638-95.137V22.027C353.671,9.858,343.813,0,331.644,0z"/>
</g>
<path style="fill:#F7B239;" d="M274.262,447.205c10.026,6.156,16.71,17.209,16.71,29.829c0,19.314-15.652,34.966-34.966,34.966
	s-34.966-15.652-34.966-34.966c0-12.62,6.684-23.674,16.71-29.829c5.307-3.262,11.562-5.137,18.256-5.137
	C262.7,442.067,268.955,443.943,274.262,447.205z"/>
<path style="opacity:0.25;fill:#4D4D4D;enable-background:new    ;" d="M274.262,447.205c-5.307-3.262-11.562-5.137-18.256-5.137
	c-5.064,0-9.875,1.077-14.215,3.012c1.397,0.624,2.748,1.331,4.041,2.126c10.026,6.156,16.71,17.209,16.71,29.829
	c0,14.25-8.526,26.499-20.751,31.946c4.344,1.935,9.151,3.02,14.215,3.02c19.314,0,34.966-15.652,34.966-34.966
	C290.972,464.413,284.288,453.36,274.262,447.205z"/>
<g>
</g>
<g>
</g>
<g>
</g>
<g>
</g>
<g>
</g>
<g>
</g>
<g>
</g>
<g>
</g>
<g>
</g>
<g>
</g>
<g>
</g>
<g>
</g>
<g>
</g>
<g>
</g>
<g>
</g>
</svg>
